<?xml version="1.0" standalone="no"?>
<!DOCTYPE svg PUBLIC "-//W3C//DTD SVG 20010904//EN"
 "http://www.w3.org/TR/2001/REC-SVG-20010904/DTD/svg10.dtd">
<svg version="1.0" xmlns="http://www.w3.org/2000/svg"
 width="928.000000pt" height="928.000000pt" viewBox="0 0 928.000000 928.000000"
 preserveAspectRatio="xMidYMid meet">
<metadata>
Created by potrace 1.11, written by Peter Selinger 2001-2013
</metadata>
<g transform="translate(0.000000,928.000000) scale(0.100000,-0.100000)"
fill="#000000" stroke="none">
<path d="M1968 7205 c-3 -4 -34 -8 -133 -20 -53 -6 -275 -57 -315 -73 -8 -3
-17 -6 -20 -6 -65 -15 -430 -186 -460 -216 -3 -3 -25 -18 -50 -34 -188 -120
-395 -313 -529 -491 -29 -38 -59 -78 -66 -87 -7 -9 -19 -27 -26 -40 -6 -13
-15 -25 -18 -28 -9 -6 -46 -72 -101 -174 -70 -133 -148 -337 -175 -459 -2 -10
-6 -26 -9 -35 -3 -9 -8 -29 -11 -44 -3 -16 -7 -38 -10 -50 -34 -173 -35 -221
-35 -1813 l0 -1565 535 0 535 0 1 23 c0 12 1 267 1 568 l1 545 94 -47 c104
-53 295 -129 388 -154 33 -9 74 -20 90 -25 31 -9 95 -21 130 -25 11 -1 29 -4
40 -8 65 -19 415 -30 524 -16 31 4 76 10 101 13 25 3 70 10 100 16 30 7 68 14
83 16 15 2 37 8 47 14 11 6 20 8 20 4 0 -3 7 -1 15 6 8 7 15 10 15 7 0 -8 145
42 245 83 77 32 104 46 225 113 77 42 260 168 260 179 0 4 6 8 13 8 7 0 20 8
28 18 9 9 28 26 42 37 69 54 249 240 240 249 -4 3 -1 6 5 6 6 0 38 37 71 83
33 45 65 87 69 93 5 5 15 21 22 35 7 13 16 26 20 29 30 23 202 386 226 478 2
9 16 60 29 112 29 110 34 131 41 185 3 21 7 42 9 45 9 15 19 175 19 305 0 188
-14 326 -51 480 -4 17 -7 32 -8 35 -2 11 -27 106 -32 120 -3 8 -17 44 -30 80
-13 36 -25 70 -27 75 -28 89 -131 281 -228 429 -53 80 -169 216 -265 310 -88
87 -110 107 -183 163 -302 234 -680 391 -1055 439 -55 7 -441 15 -447 9z m352
-1079 c288 -49 526 -193 700 -425 84 -112 167 -302 185 -426 2 -11 7 -38 10
-60 11 -59 12 -222 3 -280 -4 -27 -10 -66 -13 -86 -14 -94 -116 -342 -155
-379 -3 -3 -20 -25 -38 -50 -40 -55 -135 -154 -182 -189 -19 -14 -37 -29 -40
-32 -17 -21 -214 -128 -245 -133 -5 -1 -15 -4 -20 -8 -15 -9 -162 -45 -220
-54 -94 -14 -294 -7 -365 11 -8 2 -30 7 -49 10 -89 15 -371 150 -371 177 0 4
-6 8 -13 8 -21 0 -178 160 -223 227 -21 32 -41 60 -45 63 -20 19 -93 187 -118
275 -53 181 -47 429 15 611 74 219 262 460 450 574 21 13 41 26 44 29 20 22
222 106 280 117 14 3 32 7 39 10 8 3 35 7 60 10 25 3 47 7 49 9 4 4 231 -4
262 -9z"/>
<path d="M6958 7205 c-1 -2 -30 -6 -63 -10 -102 -10 -210 -30 -285 -51 -30 -8
-66 -17 -79 -20 -42 -9 -212 -74 -299 -115 -45 -21 -83 -38 -85 -37 -1 0 -28
-15 -59 -36 -31 -20 -62 -36 -68 -36 -5 0 -10 -4 -10 -10 0 -5 -7 -10 -15 -10
-8 0 -15 -3 -15 -8 0 -4 -13 -13 -28 -20 -16 -6 -37 -20 -48 -30 -10 -9 -44
-35 -74 -58 -88 -66 -217 -186 -305 -285 -38 -42 -145 -183 -171 -224 -10 -16
-21 -32 -25 -35 -3 -3 -17 -25 -29 -50 -12 -25 -25 -47 -29 -50 -28 -22 -163
-342 -191 -450 -6 -25 -14 -52 -17 -60 -3 -8 -7 -19 -8 -25 -6 -25 -25 -123
-30 -150 -3 -16 -7 -41 -10 -55 -19 -96 -25 -411 -11 -545 12 -108 33 -221 60
-320 9 -33 19 -67 21 -75 28 -108 145 -372 199 -453 14 -21 26 -40 26 -43 0
-6 96 -148 121 -179 241 -296 466 -479 775 -629 162 -79 407 -159 549 -180 23
-4 50 -8 60 -10 108 -20 402 -27 548 -13 160 16 409 77 547 134 8 3 21 7 27 9
26 5 212 98 293 147 91 54 237 159 309 223 141 124 320 327 377 429 9 17 20
32 23 35 18 15 174 307 176 330 0 3 13 37 28 75 30 78 75 224 83 270 3 17 10
50 15 75 10 45 13 61 26 180 15 124 6 521 -12 549 -2 4 -6 27 -10 51 -3 25 -8
52 -10 60 -2 8 -7 29 -10 47 -3 18 -10 45 -16 60 -6 15 -10 30 -10 33 1 14
-13 57 -22 68 -5 6 -7 12 -4 12 10 0 -70 208 -112 290 -145 284 -340 528 -577
720 -43 36 -80 68 -82 72 -2 5 -8 8 -13 8 -6 0 -39 20 -75 45 -35 25 -66 45
-68 45 -2 0 -37 19 -78 43 -40 24 -118 62 -173 86 -55 23 -109 46 -120 51 -24
10 -179 58 -215 66 -14 3 -29 6 -35 8 -9 3 -63 14 -110 22 -11 2 -40 7 -65 10
-25 3 -56 8 -70 11 -27 6 -416 14 -422 8z m388 -1089 c38 -8 92 -22 120 -31
55 -18 229 -101 247 -119 7 -6 31 -24 53 -39 78 -53 190 -172 265 -282 75
-108 145 -291 165 -425 14 -96 6 -352 -12 -381 -2 -3 -6 -20 -9 -38 -9 -53
-62 -189 -99 -256 -144 -257 -382 -442 -661 -514 -44 -12 -94 -22 -110 -24
-17 -2 -35 -6 -40 -8 -13 -7 -252 -2 -285 5 -13 3 -42 8 -64 12 -99 14 -320
108 -382 160 -15 13 -30 24 -34 24 -16 0 -137 115 -193 183 -163 200 -240 419
-240 682 1 72 3 141 6 155 3 14 11 52 17 84 68 349 360 670 711 781 167 53
384 65 545 31z"/>
</g>
</svg>
