<svg width="32" height="29" viewBox="0 0 32 29" fill="none" xmlns="http://www.w3.org/2000/svg">
<g clip-path="url(#clip0)">
<path d="M12.8707 23.9964C16.0526 23.9964 18.632 21.4106 18.632 18.2209C18.632 15.0311 16.0526 12.4453 12.8707 12.4453C9.6888 12.4453 7.10938 15.0311 7.10938 18.2209C7.10938 21.4106 9.6888 23.9964 12.8707 23.9964Z" fill="#474A51"/>
<path d="M29.6645 13.957H1.81935H0V14.4744C0 22.1773 6.25161 28.4444 13.9355 28.4444H18.0645C25.7484 28.4444 32 22.1773 32 14.4744V13.957H29.6645Z" fill="#474A51"/>
<path d="M5.31033 14.1985C6.06569 13.0027 6.19332 11.7271 5.59539 11.3494C4.99747 10.9717 3.90041 11.635 3.14505 12.8308C2.38969 14.0267 2.26206 15.3023 2.85998 15.6799C3.45791 16.0576 4.55497 15.3944 5.31033 14.1985Z" fill="#474A51"/>
<path d="M17.7797 6.15754C22.925 4.78325 26.0534 1.16506 25.8244 0.307509C25.5953 -0.550042 22.0956 1.67778 16.9503 3.05208C11.805 4.42638 6.96252 4.42674 7.19157 5.28429C7.42062 6.14184 12.6344 7.53184 17.7797 6.15754Z" fill="#474A51"/>
<path d="M19.5536 11.2273C20.9034 12.1506 22.3719 12.3519 22.8336 11.677C23.2952 11.0021 22.5752 9.70646 21.2254 8.78314C19.8755 7.85983 18.407 7.65846 17.9453 8.33339C17.4837 9.00831 18.2037 10.3039 19.5536 11.2273Z" fill="#474A51"/>
<path d="M27.8422 13.0202C28.4907 13.0202 29.0164 12.4932 29.0164 11.8431C29.0164 11.193 28.4907 10.666 27.8422 10.666C27.1937 10.666 26.668 11.193 26.668 11.8431C26.668 12.4932 27.1937 13.0202 27.8422 13.0202Z" fill="#474A51"/>
</g>
<defs>
<clipPath id="clip0">
<rect width="32" height="28.4444" fill="white"/>
</clipPath>
</defs>
</svg>
