<svg width="8" height="12" viewBox="0 0 8 12" fill="none" xmlns="http://www.w3.org/2000/svg">
<path d="M0 5.73047H1.86047V11.2802H0V5.73047Z" fill="#3D3B3B"/>
<path fill-rule="evenodd" clip-rule="evenodd" d="M4 3.73898C5.18163 3.73898 6.13953 4.67074 6.13953 5.82012C6.13953 6.9695 5.18163 7.90125 4 7.90125C2.81837 7.90125 1.86047 6.9695 1.86047 5.82012C1.86047 4.67074 2.81837 3.73898 4 3.73898ZM4 1.9293C6.20914 1.9293 8 3.67128 8 5.82012C8 7.96896 6.20914 9.71094 4 9.71094C1.79086 9.71094 0 7.96896 0 5.82012C0 3.67128 1.79086 1.9293 4 1.9293Z" fill="#3D3B3B"/>
<path d="M0 5.91016H1.86047V0.360461H0V5.91016Z" fill="#3D3B3B"/>
</svg>
