<svg width="12" height="17" viewBox="0 0 12 17" fill="none" xmlns="http://www.w3.org/2000/svg">
<path d="M0 8.59473H2.7907V16.9193H0V8.59473Z" fill="#3D3B3B"/>
<path fill-rule="evenodd" clip-rule="evenodd" d="M6 5.60848C7.77245 5.60848 9.2093 7.00611 9.2093 8.73018C9.2093 10.4542 7.77245 11.8519 6 11.8519C4.22755 11.8519 2.7907 10.4542 2.7907 8.73018C2.7907 7.00611 4.22755 5.60848 6 5.60848ZM6 2.89395C9.31371 2.89395 12 5.50692 12 8.73018C12 11.9534 9.31371 14.5664 6 14.5664C2.68629 14.5664 0 11.9534 0 8.73018C0 5.50692 2.68629 2.89395 6 2.89395Z" fill="#3D3B3B"/>
<path d="M0 8.86523H2.7907V0.540691H0V8.86523Z" fill="#3D3B3B"/>
</svg>
