<svg width="18" height="16" viewBox="0 0 18 16" fill="none" xmlns="http://www.w3.org/2000/svg">
<g clip-path="url(#clip0)">
<path d="M7.24073 13.4975C9.03054 13.4975 10.4815 12.043 10.4815 10.2488C10.4815 8.45452 9.03054 7 7.24073 7C5.45092 7 4 8.45452 4 10.2488C4 12.043 5.45092 13.4975 7.24073 13.4975Z" fill="#FDFDFD"/>
<path d="M16.6863 7.85156H1.02339H0V8.1426C0 12.4755 3.51653 16.0007 7.83871 16.0007H10.1613C14.4835 16.0007 18 12.4755 18 8.1426V7.85156H16.6863Z" fill="#FDFDFD"/>
<path d="M2.98731 7.98691C3.4122 7.31424 3.48399 6.59672 3.14765 6.38427C2.81132 6.17183 2.19423 6.54491 1.76933 7.21758C1.34444 7.89024 1.27265 8.60777 1.60899 8.82021C1.94532 9.03266 2.56241 8.65958 2.98731 7.98691Z" fill="#FDFDFD"/>
<path d="M10.0021 3.46313C12.8963 2.69009 14.656 0.654858 14.5272 0.172485C14.3983 -0.309887 12.4297 0.943263 9.5355 1.71631C6.64127 2.48935 3.91739 2.48955 4.04623 2.97192C4.17507 3.4543 7.10784 4.23617 10.0021 3.46313Z" fill="#FDFDFD"/>
<path d="M11.0008 6.31521C11.7601 6.83458 12.5862 6.94785 12.8458 6.5682C13.1055 6.18856 12.7005 5.45976 11.9412 4.9404C11.1819 4.42103 10.3559 4.30776 10.0962 4.68741C9.83652 5.06705 10.2415 5.79585 11.0008 6.31521Z" fill="#FDFDFD"/>
<path d="M15.6605 7.32424C16.0253 7.32424 16.321 7.0278 16.321 6.66212C16.321 6.29644 16.0253 6 15.6605 6C15.2957 6 15 6.29644 15 6.66212C15 7.0278 15.2957 7.32424 15.6605 7.32424Z" fill="#FDFDFD"/>
</g>
<defs>
<clipPath id="clip0">
<rect width="18" height="16" fill="white"/>
</clipPath>
</defs>
</svg>
